<svg width="15" height="15" viewBox="0 0 15 15" fill="none" xmlns="http://www.w3.org/2000/svg">
<path d="M6.40187 10.1963L3.75 7.54375L4.63375 6.66L6.40187 8.4275L9.93687 4.89188L10.8212 5.77625L6.40187 10.1963Z" fill="#33805A"/>
<path fill-rule="evenodd" clip-rule="evenodd" d="M0.625 7.5C0.625 3.70312 3.70312 0.625 7.5 0.625C11.2969 0.625 14.375 3.70312 14.375 7.5C14.375 11.2969 11.2969 14.375 7.5 14.375C3.70312 14.375 0.625 11.2969 0.625 7.5ZM7.5 13.125C6.76131 13.125 6.02986 12.9795 5.34741 12.6968C4.66495 12.4141 4.04485 11.9998 3.52252 11.4775C3.00019 10.9551 2.58586 10.3351 2.30318 9.65259C2.02049 8.97014 1.875 8.23869 1.875 7.5C1.875 6.76131 2.02049 6.02986 2.30318 5.34741C2.58586 4.66495 3.00019 4.04485 3.52252 3.52252C4.04485 3.00019 4.66495 2.58586 5.34741 2.30318C6.02986 2.02049 6.76131 1.875 7.5 1.875C8.99184 1.875 10.4226 2.46763 11.4775 3.52252C12.5324 4.57742 13.125 6.00816 13.125 7.5C13.125 8.99184 12.5324 10.4226 11.4775 11.4775C10.4226 12.5324 8.99184 13.125 7.5 13.125Z" fill="#33805A"/>
</svg>
