<svg width="15" height="15" viewBox="0 0 15 15" fill="none" xmlns="http://www.w3.org/2000/svg">
<path fill-rule="evenodd" clip-rule="evenodd" d="M7.5001 1.875C6.55712 1.87477 5.62921 2.11162 4.80169 2.56376C3.97417 3.0159 3.2736 3.66882 2.76439 4.4625L3.48975 4.8975C3.58067 4.95199 3.65338 5.03223 3.69868 5.12806C3.74398 5.22389 3.75983 5.33101 3.74423 5.43585C3.72863 5.54069 3.68228 5.63855 3.61104 5.71704C3.5398 5.79553 3.44688 5.85113 3.34403 5.87679L1.20117 6.4125C1.06336 6.44684 0.917545 6.42505 0.795791 6.35192C0.674036 6.27879 0.586306 6.1603 0.551889 6.0225L0.0161746 3.87964C-0.00945656 3.7769 -0.00406433 3.66887 0.0316702 3.56919C0.0674048 3.46951 0.131879 3.38265 0.216948 3.3196C0.302017 3.25654 0.403866 3.22011 0.509629 3.2149C0.615392 3.2097 0.720326 3.23596 0.811175 3.29036L1.38653 3.63536C2.08251 2.53412 3.06297 1.64128 4.22437 1.05115C5.38577 0.461018 6.68499 0.195498 7.98481 0.282635C9.28462 0.369772 10.5368 0.806331 11.609 1.5462C12.6813 2.28607 13.5338 3.30179 14.0765 4.48607C14.1655 4.67987 14.1738 4.90106 14.0996 5.10099C14.0255 5.30091 13.875 5.4632 13.6812 5.55214C13.4874 5.64108 13.2662 5.6494 13.0663 5.57525C12.8663 5.50111 12.704 5.35058 12.6151 5.15679C12.1663 4.17737 11.4457 3.34744 10.5389 2.76567C9.6322 2.18389 8.57744 1.87475 7.5001 1.875ZM8.30368 3.75C8.30368 3.53688 8.21901 3.33249 8.06831 3.18179C7.91762 3.03109 7.71322 2.94643 7.5001 2.94643C7.28698 2.94643 7.08259 3.03109 6.93189 3.18179C6.78119 3.33249 6.69653 3.53688 6.69653 3.75V8.03571C6.69653 8.24883 6.78119 8.45323 6.93189 8.60392C7.08259 8.75462 7.28698 8.83929 7.5001 8.83929C7.71322 8.83929 7.91762 8.75462 8.06831 8.60392C8.21901 8.45323 8.30368 8.24883 8.30368 8.03571V3.75ZM7.5001 11.7857C7.78426 11.7857 8.05679 11.6728 8.25772 11.4719C8.45865 11.271 8.57153 10.9984 8.57153 10.7143C8.57153 10.4301 8.45865 10.1576 8.25772 9.95667C8.05679 9.75574 7.78426 9.64286 7.5001 9.64286C7.21594 9.64286 6.94342 9.75574 6.74249 9.95667C6.54156 10.1576 6.42868 10.4301 6.42868 10.7143C6.42868 10.9984 6.54156 11.271 6.74249 11.4719C6.94342 11.6728 7.21594 11.7857 7.5001 11.7857ZM12.2358 10.5375L11.5105 10.1025C11.4195 10.048 11.3468 9.96777 11.3015 9.87194C11.2562 9.77611 11.2404 9.66899 11.256 9.56415C11.2716 9.45931 11.3179 9.36145 11.3892 9.28296C11.4604 9.20447 11.5533 9.14887 11.6562 9.12321L13.799 8.5875C13.9368 8.55316 14.0827 8.57495 14.2044 8.64808C14.3262 8.72121 14.4139 8.8397 14.4483 8.9775L14.984 11.1204C15.0097 11.2231 15.0043 11.3311 14.9685 11.4308C14.9328 11.5305 14.8683 11.6173 14.7833 11.6804C14.6982 11.7435 14.5963 11.7799 14.4906 11.7851C14.3848 11.7903 14.2799 11.764 14.189 11.7096L13.6137 11.3646C12.9177 12.4659 11.9372 13.3587 10.7758 13.9488C9.61443 14.539 8.31521 14.8045 7.0154 14.7174C5.71559 14.6302 4.46343 14.1937 3.39119 13.4538C2.31895 12.7139 1.46643 11.6982 0.923675 10.5139C0.834732 10.3201 0.826419 10.0989 0.900563 9.89901C0.974707 9.69908 1.12523 9.5368 1.31903 9.44786C1.51283 9.35891 1.73402 9.3506 1.93395 9.42474C2.13388 9.49889 2.29616 9.64942 2.3851 9.84321C2.80554 10.7619 3.46566 11.5504 4.29609 12.1258C5.12652 12.7013 6.09661 13.0425 7.10444 13.1135C8.11226 13.1845 9.12062 12.9828 10.0236 12.5295C10.9265 12.0762 11.6907 11.3881 12.2358 10.5375Z" fill="#EA9E0A"/>
</svg>
