<svg width="22" height="22" viewBox="0 0 22 22" fill="none" xmlns="http://www.w3.org/2000/svg">
<path fill-rule="evenodd" clip-rule="evenodd" d="M10.9844 0.25C16.9214 0.25 21.7344 5.063 21.7344 11C21.7344 16.937 16.9214 21.75 10.9844 21.75C5.04738 21.75 0.234375 16.937 0.234375 11C0.234375 5.063 5.04738 0.25 10.9844 0.25ZM12.5144 8.03C12.6469 7.88783 12.719 7.69978 12.7156 7.50548C12.7121 7.31118 12.6334 7.12579 12.496 6.98838C12.3586 6.85097 12.1732 6.77225 11.9789 6.76883C11.7846 6.7654 11.5965 6.83752 11.4544 6.97L7.95438 10.47C7.81392 10.6106 7.73503 10.8012 7.73503 11C7.73503 11.1988 7.81392 11.3894 7.95438 11.53L11.4544 15.03C11.523 15.1037 11.6058 15.1628 11.6978 15.2038C11.7898 15.2448 11.8891 15.2668 11.9899 15.2686C12.0906 15.2704 12.1906 15.2518 12.284 15.2141C12.3774 15.1764 12.4622 15.1203 12.5334 15.049C12.6046 14.9778 12.6608 14.893 12.6985 14.7996C12.7362 14.7062 12.7547 14.6062 12.753 14.5055C12.7512 14.4048 12.7291 14.3055 12.6882 14.2135C12.6472 14.1215 12.5881 14.0387 12.5144 13.97L9.54438 11L12.5144 8.03Z" fill="#4F7670"/>
</svg>
