<svg width="22" height="22" viewBox="0 0 22 22" fill="none" xmlns="http://www.w3.org/2000/svg">
<path fill-rule="evenodd" clip-rule="evenodd" d="M10.8831 0C16.8935 0 21.7661 4.813 21.7661 10.75C21.7661 16.687 16.8935 21.5 10.8831 21.5C4.87257 21.5 0 16.687 0 10.75C0 4.813 4.87257 0 10.8831 0ZM10.4072 6.72C10.3377 6.64631 10.2539 6.58721 10.1608 6.54622C10.0676 6.50523 9.96708 6.48319 9.86513 6.48141C9.76318 6.47963 9.66192 6.49816 9.56737 6.53588C9.47283 6.5736 9.38695 6.62974 9.31485 6.70096C9.24275 6.77218 9.18591 6.85701 9.14772 6.9504C9.10953 7.04379 9.09078 7.14382 9.09257 7.24452C9.09437 7.34522 9.11669 7.44454 9.15819 7.53654C9.19969 7.62854 9.25952 7.71134 9.33412 7.78L12.3409 10.75L9.33412 13.72C9.25952 13.7887 9.19969 13.8715 9.15819 13.9635C9.11669 14.0555 9.09437 14.1548 9.09257 14.2555C9.09078 14.3562 9.10953 14.4562 9.14772 14.5496C9.18591 14.643 9.24275 14.7278 9.31485 14.799C9.38695 14.8703 9.47283 14.9264 9.56737 14.9641C9.66192 15.0018 9.76318 15.0204 9.86513 15.0186C9.96708 15.0168 10.0676 14.9948 10.1608 14.9538C10.2539 14.9128 10.3377 14.8537 10.4072 14.78L13.9506 11.28C14.0927 11.1394 14.1726 10.9488 14.1726 10.75C14.1726 10.5512 14.0927 10.3606 13.9506 10.22L10.4072 6.72Z" fill="#4F7670"/>
</svg>
