<svg width="40" height="40" viewBox="0 0 40 40" fill="none" xmlns="http://www.w3.org/2000/svg">
<path d="M14.5834 19.0483C14.5719 18.4548 14.6789 17.865 14.8981 17.3133C15.1173 16.7617 15.4443 16.2593 15.8599 15.8355C16.2756 15.4117 16.7716 15.0751 17.3189 14.8453C17.8663 14.6154 18.4539 14.4971 19.0475 14.4971C19.6411 14.4971 20.2288 14.6154 20.7761 14.8453C21.3234 15.0751 21.8194 15.4117 22.2351 15.8355C22.6508 16.2593 22.9778 16.7617 23.197 17.3133C23.4162 17.865 23.5232 18.4548 23.5117 19.0483C23.4891 20.2174 23.0088 21.3309 22.1741 22.1497C21.3394 22.9684 20.2168 23.4271 19.0475 23.4271C17.8783 23.4271 16.7557 22.9684 15.9209 22.1497C15.0862 21.3309 14.6059 20.2174 14.5834 19.0483Z" fill="#4F7670"/>
<path d="M3.75 20C3.75 11.025 11.025 3.75 20 3.75C28.975 3.75 36.25 11.025 36.25 20C36.25 28.975 28.975 36.25 20 36.25C11.025 36.25 3.75 28.975 3.75 20ZM19.0483 12.0833C17.9558 12.0833 16.8785 12.3403 15.9036 12.8336C14.9287 13.3269 14.0836 14.0426 13.4364 14.9229C12.7893 15.8032 12.3583 16.8233 12.1783 17.901C11.9984 18.9786 12.0744 20.0835 12.4004 21.1263C12.7264 22.1691 13.2931 23.1206 14.0548 23.9039C14.8164 24.6872 15.7517 25.2804 16.785 25.6354C17.8183 25.9904 18.9206 26.0973 20.0028 25.9476C21.0851 25.7978 22.1169 25.3956 23.015 24.7733L25.7817 27.5483C25.8968 27.6679 26.0346 27.7633 26.187 27.829C26.3394 27.8947 26.5034 27.9294 26.6694 27.9311C26.8353 27.9328 27 27.9014 27.1537 27.8387C27.3074 27.7761 27.4471 27.6835 27.5646 27.5663C27.6821 27.4491 27.7751 27.3097 27.8382 27.1561C27.9013 27.0026 27.9331 26.8381 27.9319 26.6721C27.9307 26.5061 27.8965 26.3421 27.8312 26.1895C27.7659 26.0369 27.6709 25.8988 27.5517 25.7833L24.78 23.0033C25.5012 21.9579 25.9228 20.7352 25.9992 19.4674C26.0756 18.1996 25.8039 16.9351 25.2136 15.8106C24.6232 14.6861 23.7365 13.7445 22.6496 13.0875C21.5626 12.4305 20.3184 12.0833 19.0483 12.0833Z" fill="#4F7670"/>
</svg>
