<svg width="15" height="15" viewBox="0 0 15 15" fill="none" xmlns="http://www.w3.org/2000/svg">
<path d="M7.49996 4.21875C7.62428 4.21875 7.74351 4.26813 7.83142 4.35604C7.91933 4.44395 7.96871 4.56318 7.96871 4.6875V7.96875C7.96871 8.09307 7.91933 8.2123 7.83142 8.30021C7.74351 8.38811 7.62428 8.4375 7.49996 8.4375C7.37564 8.4375 7.25641 8.38811 7.16851 8.30021C7.0806 8.2123 7.03121 8.09307 7.03121 7.96875V4.6875C7.03121 4.56318 7.0806 4.44395 7.16851 4.35604C7.25641 4.26813 7.37564 4.21875 7.49996 4.21875ZM6.79684 10.0781C6.79684 10.2172 6.83807 10.3531 6.91533 10.4688C6.99259 10.5844 7.10241 10.6745 7.23089 10.7277C7.35937 10.7809 7.50074 10.7949 7.63713 10.7677C7.77353 10.7406 7.89881 10.6736 7.99715 10.5753C8.09548 10.477 8.16245 10.3517 8.18958 10.2153C8.21671 10.0789 8.20278 9.93753 8.14956 9.80905C8.09635 9.68057 8.00623 9.57076 7.8906 9.4935C7.77497 9.41624 7.63903 9.375 7.49996 9.375C7.31348 9.375 7.13464 9.44908 7.00278 9.58094C6.87092 9.7128 6.79684 9.89164 6.79684 10.0781ZM14.0625 7.5C14.0628 7.62279 14.0388 7.74442 13.9918 7.85787C13.9449 7.97132 13.8759 8.07433 13.7888 8.16094L8.1609 13.7895C7.98525 13.9641 7.74764 14.0621 7.49996 14.0621C7.25229 14.0621 7.01468 13.9641 6.83902 13.7895L1.21402 8.16094C1.03941 7.98528 0.941406 7.74767 0.941406 7.5C0.941406 7.25232 1.03941 7.01471 1.21402 6.83906L6.84195 1.21055C7.01761 1.03594 7.25522 0.937927 7.50289 0.937927C7.75057 0.937927 7.98818 1.03594 8.16383 1.21055L13.7918 6.83906C13.8783 6.92591 13.9467 7.02903 13.9932 7.14247C14.0396 7.2559 14.0632 7.37742 14.0625 7.5ZM13.125 7.5L7.49996 1.875L1.87496 7.5L7.49996 13.125L13.125 7.5Z" fill="#E2474B"/>
</svg>
