<svg width="20" height="22" viewBox="0 0 20 22" fill="none" xmlns="http://www.w3.org/2000/svg">
<path d="M9.09074 22C7.21174 22 5.68164 20.4582 5.68164 18.5625C5.68164 18.183 5.98709 17.875 6.36346 17.875C6.73983 17.875 7.04528 18.183 7.04528 18.5625C7.04528 19.7002 7.96347 20.625 9.09074 20.625C10.218 20.625 11.1362 19.7002 11.1362 18.5625C11.1362 18.183 11.4417 17.875 11.818 17.875C12.1944 17.875 12.4998 18.183 12.4998 18.5625C12.4998 20.4582 10.9699 22 9.09074 22V22Z" fill="#FE5C73"/>
<path d="M16.5909 19.25H1.59086C0.713614 19.25 0 18.5304 0 17.6459C0 17.1764 0.202748 16.732 0.556309 16.4267C0.579114 16.4065 0.603584 16.3882 0.629052 16.3716C1.96356 15.1973 2.72728 13.508 2.72728 11.7241V9.16661C2.72728 5.6284 5.58273 2.75 9.09088 2.75C9.23637 2.75 9.39367 2.75269 9.53916 2.77753C9.91086 2.8398 10.1619 3.19463 10.1 3.56859C10.0382 3.94255 9.67998 4.19566 9.31543 4.13322C9.24269 4.12131 9.16279 4.125 9.09088 4.125C6.33463 4.125 4.09092 6.3864 4.09092 9.16661V11.7241C4.09092 13.9388 3.12812 16.0344 1.45186 17.4725C1.43821 17.4836 1.4264 17.4937 1.41175 17.5037C1.38728 17.5349 1.36364 17.5826 1.36364 17.6459C1.36364 17.7704 1.46734 17.875 1.59086 17.875H16.5909C16.7146 17.875 16.8183 17.7704 16.8183 17.6459C16.8183 17.5816 16.7946 17.5349 16.7692 17.5037C16.7555 17.4937 16.7437 17.4836 16.7301 17.4725C15.0528 16.0334 14.091 13.9388 14.091 11.7241V10.7251C14.091 10.3456 14.3965 10.0376 14.7728 10.0376C15.1492 10.0376 15.4546 10.3456 15.4546 10.7251V11.7241C15.4546 13.509 16.2192 15.1992 17.5555 16.3745C17.58 16.3909 17.6036 16.4084 17.6254 16.4277C17.9792 16.732 18.1819 17.1764 18.1819 17.6459C18.1819 18.5304 17.4683 19.25 16.5909 19.25V19.25Z" fill="#FE5C73"/>
<path d="M15.4547 9.16661C12.9483 9.16661 10.9092 7.11066 10.9092 4.58339C10.9092 2.05612 12.9483 0 15.4547 0C17.9611 0 20.0001 2.05612 20.0001 4.58339C20.0001 7.11066 17.9611 9.16661 15.4547 9.16661V9.16661ZM15.4547 1.375C13.7 1.375 12.2728 2.81412 12.2728 4.58339C12.2728 6.35249 13.7 7.79161 15.4547 7.79161C17.2092 7.79161 18.6364 6.35249 18.6364 4.58339C18.6364 2.81412 17.2092 1.375 15.4547 1.375V1.375Z" fill="#FE5C73"/>
</svg>
