<svg width="24" height="24" viewBox="0 0 24 24" fill="none" xmlns="http://www.w3.org/2000/svg">
<path fill-rule="evenodd" clip-rule="evenodd" d="M11.6666 0C18.0994 0 23.3334 5.23398 23.3334 11.6666C23.3334 18.0993 18.0994 23.3334 11.6666 23.3334C5.23398 23.3334 0 18.0994 0 11.6666C0 5.23398 5.23398 0 11.6666 0ZM11.6666 2.33335C6.50196 2.33335 2.33335 6.50196 2.33335 11.6666C2.33335 16.8313 6.50196 21 11.6666 21C16.8313 21 21 16.8314 21 11.6666C21 6.50196 16.8314 2.33335 11.6666 2.33335ZM11.7166 6.31356C12.5991 7.46107 12.8968 8.87272 12.6141 9.9033C12.5788 10.0729 13.8226 11.3953 16.3455 13.8706C17.1704 14.6956 17.1704 15.5205 16.3455 16.3455C15.5691 17.1219 14.7926 17.1675 14.0162 16.4825L9.92173 12.5956C8.89109 12.8784 7.4795 12.5807 6.33205 11.6982C5.49041 10.5916 5.20018 9.14512 5.43462 8.10846L7.22947 9.9033L9.02431 9.00588L9.92173 7.21104L8.12689 5.41614C9.1636 5.1817 10.6101 5.47192 11.7166 6.31356Z" fill="#659F7C"/>
</svg>
